<svg width="24" height="24" viewBox="0 0 24 24" fill="none" xmlns="http://www.w3.org/2000/svg">
<path d="M9.75 6.65991V7.92741H23.9869C23.967 7.51866 23.9242 7.00191 23.7712 6.65991" fill="#EC1C24"/>
<path d="M23.1 5.39258H9.75V6.66008H23.7712C23.619 6.1872 23.3925 5.75595 23.1 5.39258Z" fill="#E6E7E8"/>
<path d="M20.25 4.125H9.75V5.3925H23.1C22.4741 4.60875 21.444 4.125 20.25 4.125Z" fill="#EC1C24"/>
<path d="M23.9869 7.92749H9.75V9.19499H24V8.35012C24 8.27474 23.9951 8.20124 23.9929 8.12737C23.9914 8.10712 23.9891 8.05499 23.9869 7.92749Z" fill="#E6E7E8"/>
<path d="M9.75 10.4626H24V9.19507H9.75V10.4626Z" fill="#EC1C24"/>
<path d="M9.75 11.7299H24V10.4624H9.75V11.7299Z" fill="#E6E7E8"/>
<path d="M9.75 11.73H24V12.9975H9.75V11.73Z" fill="#EC1C24"/>
<path d="M0 12.9976V14.2651H24V12.9976H9.75H0Z" fill="#E6E7E8"/>
<path d="M0 14.2649H24V15.5324H0V14.2649Z" fill="#EC1C24"/>
<path d="M0.001875 16.3121C0.001875 16.3121 -0.0015 16.6192 0.0075 16.8H23.9925C24.003 16.6147 23.9981 16.3121 23.9981 16.3121L24 15.5325H0L0.001875 16.3121Z" fill="#E6E7E8"/>
<path d="M3.75125 20.625H20.2512C21.4486 20.625 22.4439 20.19 23.1238 19.335H0.875C1.577 20.2087 2.591 20.625 3.74937 20.625" fill="#EC1C24"/>
<path d="M0.875313 19.3349H23.1241C23.4207 18.958 23.6422 18.5277 23.7766 18.0674H0.226562C0.363474 18.5264 0.584055 18.9561 0.877187 19.3349" fill="#E6E7E8"/>
<path d="M0.225313 18.0675H23.7753C23.8981 17.6552 23.9711 17.2297 23.9928 16.8H0.0078125C0.0449375 17.2335 0.0794375 17.5609 0.225313 18.0675Z" fill="#EC1C24"/>
<path d="M9.75 4.125H3.75C1.26488 4.125 0 5.97187 0 8.25V12.9975H9.75V4.125Z" fill="#176496"/>
<path d="M1.05025 6.36604L1.25425 6.20929L1.45788 6.36604L1.37875 6.11404L1.58163 5.95991H1.33112L1.2535 5.70679L1.17625 5.95991H0.926125L1.12975 6.11404L1.05025 6.36604ZM2.398 6.36604L2.602 6.20929L2.80562 6.36604L2.72688 6.11404L2.92937 5.95991H2.67925L2.60162 5.70679L2.52437 5.95991H2.2735L2.47713 6.11404L2.398 6.36604ZM3.88488 6.36604L4.0885 6.20929L4.2925 6.36604L4.21338 6.11404L4.41587 5.95991H4.16725L4.0885 5.70679L4.01087 5.95991H3.76225L3.96362 6.11404L3.88488 6.36604ZM5.36088 6.36604L5.5645 6.20929L5.7685 6.36604L5.68975 6.11404L5.89225 5.95991H5.641L5.5645 5.70679L5.48725 5.95991H5.23675L5.44 6.11404L5.36088 6.36604ZM6.84212 6.36604L7.04613 6.20929L7.24975 6.36604L7.171 6.11404L7.37387 5.95991H7.123L7.04575 5.70679L6.9685 5.95991H6.71838L6.92087 6.11404L6.84212 6.36604ZM1.76762 7.02416L1.97125 6.86779L2.17488 7.02416L2.0965 6.77254L2.299 6.61841H2.0485L1.97087 6.36566L1.89475 6.61841H1.6435L1.84637 6.77254L1.76762 7.02416ZM3.11575 7.02416L3.31938 6.86779L3.523 7.02416L3.44425 6.77254L3.64675 6.61841H3.39475L3.31938 6.36566L3.24175 6.61841H2.99162L3.1945 6.77254L3.11575 7.02416ZM4.60263 7.02416L4.80588 6.86779L5.0095 7.02416L4.93075 6.77254L5.13363 6.61841H4.8835L4.80588 6.36566L4.72825 6.61841H4.47775L4.68063 6.77254L4.60263 7.02416ZM6.07788 7.02416L6.28188 6.86779L6.48588 7.02416L6.406 6.77254L6.60925 6.61841H6.35913L6.2815 6.36566L6.20463 6.61841H5.95413L6.157 6.77254L6.07788 7.02416ZM7.561 7.02416L7.76312 6.86779L7.96675 7.02416L7.88725 6.77254L8.0905 6.61841H7.84075L7.76275 6.36566L7.68587 6.61841H7.43538L7.63825 6.77254L7.561 7.02416ZM8.39612 6.36604L8.59975 6.20929L8.80375 6.36604L8.72463 6.11404L8.92712 5.95991H8.6785L8.59938 5.70679L8.52213 5.95991H8.26975L8.47488 6.11404L8.39612 6.36604ZM1.03037 11.6325L1.23438 11.4777L1.438 11.6325L1.35925 11.3828L1.56175 11.2283L1.31162 11.229L1.23362 10.9763L1.15712 11.229L0.90625 11.2283L1.10912 11.3828L1.03037 11.6325ZM2.3785 11.6325L2.58212 11.4777L2.78612 11.6325L2.707 11.3828L2.9095 11.2283L2.65975 11.229L2.58175 10.9763L2.50487 11.229L2.25475 11.2283L2.45725 11.3828L2.3785 11.6325ZM3.86538 11.6325L4.069 11.4777L4.273 11.6325L4.19388 11.3828L4.39637 11.2283L4.14475 11.229L4.06863 10.9763L3.99137 11.229L3.74125 11.2283L3.94412 11.3828L3.86538 11.6325ZM5.34137 11.6325L5.545 11.4777L5.74862 11.6325L5.671 11.3828L5.87238 11.2283L5.62188 11.229L5.54462 10.9763L5.46737 11.229L5.21725 11.2283L5.41975 11.3828L5.34137 11.6325ZM6.82225 11.6325L7.02625 11.4777L7.23025 11.6325L7.15225 11.3828L7.35363 11.2283L7.1035 11.229L7.02588 10.9763L6.949 11.229L6.6985 11.2283L6.901 11.3828L6.82225 11.6325ZM8.37625 11.6325L8.57988 11.4777L8.78387 11.6325L8.70475 11.3828L8.90763 11.2283L8.656 11.229L8.5795 10.9763L8.50225 11.229L8.251 11.2283L8.455 11.3828L8.37625 11.6325ZM1.05025 7.68304L1.25425 7.52629L1.45788 7.68304L1.37875 7.43104L1.58163 7.27691L1.33112 7.27766L1.2535 7.02416L1.17625 7.27766L0.926125 7.27691L1.12975 7.43104L1.05025 7.68304ZM2.398 7.68304L2.602 7.52629L2.80562 7.68304L2.72688 7.43104L2.92937 7.27691L2.67925 7.27766L2.60162 7.02416L2.52437 7.27766L2.2735 7.27691L2.47713 7.43104L2.398 7.68304ZM3.88488 7.68304L4.0885 7.52629L4.2925 7.68304L4.21338 7.43104L4.41587 7.27691L4.16725 7.27766L4.0885 7.02416L4.01087 7.27766L3.76225 7.27691L3.96362 7.43104L3.88488 7.68304ZM5.36088 7.68304L5.5645 7.52629L5.7685 7.68304L5.68975 7.43104L5.89225 7.27691L5.641 7.27766L5.5645 7.02416L5.48725 7.27766L5.23675 7.27691L5.44 7.43104L5.36088 7.68304ZM6.84212 7.68304L7.04613 7.52629L7.24975 7.68304L7.171 7.43104L7.37387 7.27691L7.123 7.27766L7.04575 7.02416L6.9685 7.27766L6.71838 7.27691L6.92087 7.43104L6.84212 7.68304ZM1.76762 8.34154L1.97125 8.18516L2.17488 8.34154L2.0965 8.08991L2.299 7.93504H2.0485L1.97087 7.68304L1.89475 7.93504H1.6435L1.84637 8.08991L1.76762 8.34154ZM3.11575 8.34154L3.31938 8.18516L3.523 8.34154L3.44425 8.08991L3.64675 7.93504H3.39475L3.31938 7.68304L3.24175 7.93504H2.99162L3.1945 8.08991L3.11575 8.34154ZM4.60263 8.34154L4.80588 8.18516L5.0095 8.34154L4.93075 8.08991L5.13363 7.93504H4.8835L4.80588 7.68304L4.72825 7.93504H4.47775L4.68063 8.08991L4.60263 8.34154ZM6.07788 8.34154L6.28188 8.18516L6.48588 8.34154L6.406 8.08991L6.60925 7.93504H6.35913L6.2815 7.68304L6.20463 7.93504H5.95413L6.157 8.08991L6.07788 8.34154ZM7.561 8.34154L7.76312 8.18516L7.96675 8.34154L7.88725 8.08991L8.0905 7.93504H7.84075L7.76275 7.68304L7.68587 7.93504H7.43538L7.63825 8.08991L7.561 8.34154ZM8.39612 7.68304L8.59975 7.52629L8.80375 7.68304L8.72463 7.43104L8.92712 7.27691L8.6785 7.27766L8.59938 7.02416L8.52213 7.27766L8.26975 7.27691L8.47488 7.43104L8.39612 7.68304ZM1.03037 9.00004L1.23438 8.84366L1.438 9.00004L1.35888 8.74879L1.56175 8.59429L1.31125 8.59504L1.23362 8.34154L1.15712 8.59504L0.90625 8.59429L1.10912 8.74879L1.03037 9.00004ZM2.3785 9.00004L2.58212 8.84366L2.78612 9.00004L2.707 8.74879L2.9095 8.59429L2.65975 8.59504L2.58175 8.34154L2.50487 8.59504L2.25475 8.59429L2.45687 8.74879L2.3785 9.00004ZM3.86538 9.00004L4.069 8.84366L4.27262 9.00004L4.19388 8.74879L4.39637 8.59429L4.14475 8.59504L4.06863 8.34154L3.99137 8.59504L3.74125 8.59429L3.94412 8.74879L3.86538 9.00004ZM5.34137 9.00004L5.54462 8.84366L5.74862 9.00004L5.671 8.74879L5.87238 8.59429L5.62188 8.59504L5.54462 8.34154L5.46737 8.59504L5.21725 8.59429L5.41975 8.74879L5.34137 9.00004ZM6.82225 9.00004L7.02625 8.84366L7.22988 9.00004L7.15225 8.74879L7.35363 8.59429L7.10312 8.59504L7.02588 8.34154L6.949 8.59504L6.6985 8.59429L6.901 8.74879L6.82225 9.00004ZM1.74775 9.65854L1.95138 9.50254L2.155 9.65854L2.07662 9.40879L2.27875 9.25354H2.02825L1.951 9.00004L1.87412 9.25354H1.62363L1.8265 9.40879L1.74775 9.65854ZM3.09588 9.65854L3.2995 9.50254L3.50312 9.65854L3.42437 9.40879L3.62687 9.25354H3.376L3.29912 9.00004L3.22187 9.25354H2.97137L3.17463 9.40879L3.09588 9.65854ZM4.58313 9.65854L4.786 9.50254L4.99 9.65854L4.90975 9.40879L5.11375 9.25354H4.86362L4.786 9.00004L4.70875 9.25354H4.45825L4.66113 9.40879L4.58313 9.65854ZM6.05725 9.65854L6.262 9.50254L6.466 9.65854L6.38725 9.40879L6.58938 9.25354H6.33925L6.26163 9.00004L6.18475 9.25354H5.93425L6.13713 9.40879L6.05725 9.65854ZM7.5385 9.65854L7.74325 9.50254L7.94725 9.65854L7.86812 9.40879L8.07137 9.25354H7.82125L7.74325 9.00004L7.666 9.25354H7.4155L7.61837 9.40879L7.5385 9.65854ZM8.37625 9.00004L8.57988 8.84366L8.7835 9.00004L8.70475 8.74879L8.90763 8.59429L8.656 8.59504L8.5795 8.34154L8.50225 8.59504L8.251 8.59429L8.455 8.74879L8.37625 9.00004ZM1.03037 10.3174L1.23438 10.1625L1.438 10.3174L1.35888 10.0658L1.56175 9.91129L1.31125 9.91204L1.23362 9.65854L1.15712 9.91204L0.90625 9.91129L1.10912 10.0658L1.03037 10.3174ZM2.3785 10.3174L2.58212 10.1625L2.78612 10.3174L2.707 10.0658L2.9095 9.91129L2.65975 9.91204L2.58175 9.65854L2.50487 9.91204L2.25475 9.91129L2.45687 10.0658L2.3785 10.3174ZM3.86538 10.3174L4.069 10.1625L4.27262 10.3174L4.19388 10.0658L4.39637 9.91129L4.14475 9.91204L4.06863 9.65854L3.99137 9.91204L3.74125 9.91129L3.94412 10.0658L3.86538 10.3174ZM5.34137 10.3174L5.54462 10.1625L5.74862 10.3174L5.671 10.0658L5.87238 9.91129L5.62188 9.91204L5.54462 9.65854L5.46737 9.91204L5.21725 9.91129L5.41975 10.0658L5.34137 10.3174ZM6.82225 10.3174L7.02625 10.1625L7.22988 10.3174L7.15225 10.0658L7.35363 9.91129L7.10312 9.91204L7.02588 9.65854L6.949 9.91204L6.6985 9.91129L6.901 10.0658L6.82225 10.3174ZM1.74775 10.9763L1.95138 10.8195L2.155 10.9763L2.07662 10.7243L2.27875 10.5713H2.02825L1.951 10.3174L1.87412 10.5713H1.62363L1.8265 10.7243L1.74775 10.9763ZM3.09588 10.9763L3.2995 10.8195L3.50312 10.9763L3.42437 10.7243L3.62687 10.5713H3.376L3.29912 10.3174L3.22187 10.5713H2.97137L3.17463 10.7243L3.09588 10.9763ZM4.58313 10.9763L4.786 10.8195L4.99 10.9763L4.90975 10.7243L5.11375 10.5713H4.86362L4.786 10.3174L4.70875 10.5713H4.45825L4.66113 10.7243L4.58313 10.9763ZM6.05725 10.9763L6.262 10.8195L6.466 10.9763L6.38725 10.7243L6.58938 10.5713H6.33925L6.26163 10.3174L6.18475 10.5713H5.93425L6.13713 10.7243L6.05725 10.9763ZM7.5385 10.9763L7.74325 10.8195L7.94725 10.9763L7.86812 10.7243L8.07137 10.5713H7.82125L7.74325 10.3174L7.666 10.5713H7.4155L7.61837 10.7243L7.5385 10.9763ZM8.37625 10.3174L8.57988 10.1625L8.7835 10.3174L8.70475 10.0658L8.90763 9.91129L8.656 9.91204L8.5795 9.65854L8.50225 9.91204L8.251 9.91129L8.455 10.0658L8.37625 10.3174Z" fill="white"/>
</svg>
