<svg width="17" height="16" viewBox="0 0 17 16" fill="none" xmlns="http://www.w3.org/2000/svg">
<path d="M8.81027 1.04121L14.992 3.5139C15.2324 3.61006 15.4248 3.89854 15.4248 4.15268V6.43309C15.4248 6.81087 15.1157 7.11995 14.7379 7.11995H2.37436C1.99659 7.11995 1.6875 6.81087 1.6875 6.43309V4.15268C1.6875 3.89854 1.87982 3.61006 2.12022 3.5139L8.30199 1.04121C8.43936 0.986263 8.67289 0.986263 8.81027 1.04121Z" stroke="black" stroke-width="0.944436" stroke-miterlimit="10" stroke-linecap="round" stroke-linejoin="round"/>
<path d="M15.4248 14.6757H1.6875V12.6151C1.6875 12.2373 1.99659 11.9282 2.37436 11.9282H14.7379C15.1157 11.9282 15.4248 12.2373 15.4248 12.6151V14.6757Z" stroke="black" stroke-width="0.944436" stroke-miterlimit="10" stroke-linecap="round" stroke-linejoin="round"/>
<path d="M3.0625 11.9277V7.11963" stroke="black" stroke-width="0.944436" stroke-miterlimit="10" stroke-linecap="round" stroke-linejoin="round"/>
<path d="M5.80469 11.9277V7.11963" stroke="black" stroke-width="0.944436" stroke-miterlimit="10" stroke-linecap="round" stroke-linejoin="round"/>
<path d="M8.55469 11.9277V7.11963" stroke="black" stroke-width="0.944436" stroke-miterlimit="10" stroke-linecap="round" stroke-linejoin="round"/>
<path d="M11.3047 11.9277V7.11963" stroke="black" stroke-width="0.944436" stroke-miterlimit="10" stroke-linecap="round" stroke-linejoin="round"/>
<path d="M14.0469 11.9277V7.11963" stroke="black" stroke-width="0.944436" stroke-miterlimit="10" stroke-linecap="round" stroke-linejoin="round"/>
<path d="M1 14.6753H16.111" stroke="black" stroke-width="0.944436" stroke-miterlimit="10" stroke-linecap="round" stroke-linejoin="round"/>
<path d="M8.56154 5.40239C9.13054 5.40239 9.59184 4.94111 9.59184 4.37209C9.59184 3.80307 9.13054 3.3418 8.56154 3.3418C7.99255 3.3418 7.53125 3.80307 7.53125 4.37209C7.53125 4.94111 7.99255 5.40239 8.56154 5.40239Z" stroke="black" stroke-width="0.944436" stroke-miterlimit="10" stroke-linecap="round" stroke-linejoin="round"/>
</svg>
