<svg width="24" height="24" viewBox="0 0 24 24" fill="none" xmlns="http://www.w3.org/2000/svg">
<path d="M21.3333 3.33325H2.66667C1.95942 3.33325 1.28115 3.6142 0.781049 4.1143C0.280952 4.6144 0 5.29267 0 5.99992L0 17.9999C0 18.7072 0.280952 19.3854 0.781049 19.8855C1.28115 20.3856 1.95942 20.6666 2.66667 20.6666H21.3333C22.0406 20.6666 22.7189 20.3856 23.219 19.8855C23.719 19.3854 24 18.7072 24 17.9999V5.99992C24 5.29267 23.719 4.6144 23.219 4.1143C22.7189 3.6142 22.0406 3.33325 21.3333 3.33325Z" fill="#003399"/>
<path d="M12.3558 6.46998L12.9218 6.05864H12.2225L12.0058 5.39331L11.7898 6.05864H11.0905L11.6565 6.46998L11.4398 7.13531L12.0058 6.72398L12.5718 7.13531L12.3558 6.46998ZM12.3558 18.0253L12.9218 17.614H12.2225L12.0058 16.9486L11.7898 17.614H11.0905L11.6565 18.0253L11.4398 18.6906L12.0058 18.2793L12.5718 18.6906L12.3558 18.0253ZM6.5785 12.2473L7.1445 11.836H6.4445L6.2285 11.1706L6.01183 11.836H5.3125L5.8785 12.2473L5.6625 12.9126L6.2285 12.5013L6.7945 12.9126L6.5785 12.2473ZM7.3165 9.39064L7.8825 8.97931H7.1825L6.9665 8.31398L6.7505 8.97931H6.0505L6.6165 9.39064L6.4005 10.056L6.9665 9.64464L7.5325 10.056L7.3165 9.39064ZM7.3165 15.1366L7.8825 14.7253H7.1825L6.9665 14.06L6.7505 14.7253H6.0505L6.6165 15.1366L6.4005 15.802L6.9665 15.3906L7.5325 15.802L7.3165 15.1366ZM9.46717 7.24398L10.0332 6.83264H9.33317L9.11717 6.16731L8.90117 6.83264H8.20117L8.76717 7.24398L8.55117 7.90931L9.11717 7.49798L9.68317 7.90931L9.46717 7.24398ZM9.46717 17.2886L10.0332 16.8773H9.33317L9.11717 16.212L8.90117 16.8773H8.20117L8.76717 17.2886L8.55117 17.954L9.11717 17.5433L9.68317 17.954L9.46717 17.2886ZM17.4145 12.2473L16.8485 11.836H17.5485L17.7645 11.1706L17.9812 11.836H18.6805L18.1145 12.2473L18.3305 12.9126L17.7645 12.5013L17.1985 12.9126L17.4145 12.2473ZM16.6765 9.39064L16.1105 8.97931H16.8105L17.0265 8.31398L17.2425 8.97931H17.9425L17.3765 9.39064L17.5925 10.056L17.0265 9.64464L16.4605 10.056L16.6765 9.39064ZM16.6765 15.1366L16.1105 14.7253H16.8105L17.0265 14.06L17.2425 14.7253H17.9425L17.3765 15.1366L17.5925 15.802L17.0265 15.3906L16.4605 15.802L16.6765 15.1366ZM14.5258 7.24398L13.9598 6.83264H14.6598L14.8758 6.16731L15.0918 6.83264H15.7918L15.2258 7.24398L15.4418 7.90931L14.8758 7.49798L14.3098 7.90931L14.5258 7.24398ZM14.5258 17.2886L13.9598 16.8773H14.6598L14.8758 16.212L15.0918 16.8773H15.7918L15.2258 17.2886L15.4418 17.954L14.8758 17.5433L14.3098 17.954L14.5258 17.2886Z" fill="#FFCC00"/>
</svg>
